<?xml version="1.0" encoding="UTF-8" standalone="no"?>
<svg width="26px" height="26px" viewBox="0 0 26 26" version="1.1" xmlns="http://www.w3.org/2000/svg" xmlns:xlink="http://www.w3.org/1999/xlink">
    <!-- Generator: Sketch 3.8.2 (29753) - http://www.bohemiancoding.com/sketch -->
    <title>Group</title>
    <desc>Created with Sketch.</desc>
    <defs></defs>
    <g id="Page-1" stroke="none" stroke-width="1" fill="none" fill-rule="evenodd">
        <g id="Identi_Wireframe" transform="translate(-748.000000, -4485.000000)" fill="#006AA5">
            <g id="footer" transform="translate(0.000000, 4454.000000)">
                <g id="social-icons" transform="translate(666.000000, 31.000000)">
                    <g id="insta" transform="translate(82.000000, 0.000000)">
                        <g id="Layer_1">
                            <g id="Group">
                                <path d="M18.9583333,26 L7.04166667,26 C3.159,26 0,22.8412708 0,18.9583333 L0,7.04166667 C0,3.159 3.159,0 7.04166667,0 L18.9583333,0 C22.8412708,0 26,3.159 26,7.04166667 L26,18.9583333 C26,22.8412708 22.8412708,26 18.9583333,26 L18.9583333,26 Z M7.04166667,2.16666667 C4.35364583,2.16666667 2.16666667,4.35364583 2.16666667,7.04166667 L2.16666667,18.9583333 C2.16666667,21.6463542 4.35364583,23.8333333 7.04166667,23.8333333 L18.9583333,23.8333333 C21.6463542,23.8333333 23.8333333,21.6463542 23.8333333,18.9583333 L23.8333333,7.04166667 C23.8333333,4.35364583 21.6463542,2.16666667 18.9583333,2.16666667 L7.04166667,2.16666667 L7.04166667,2.16666667 Z" id="Shape"></path>
                                <path d="M13,19.5 C9.41579167,19.5 6.5,16.5839375 6.5,13 C6.5,9.41579167 9.41579167,6.5 13,6.5 C16.5839375,6.5 19.5,9.41579167 19.5,13 C19.5,16.5839375 16.5839375,19.5 13,19.5 L13,19.5 Z M13,8.66666667 C10.6107083,8.66666667 8.66666667,10.6107083 8.66666667,13 C8.66666667,15.3892917 10.6107083,17.3333333 13,17.3333333 C15.3892917,17.3333333 17.3333333,15.3892917 17.3333333,13 C17.3333333,10.6107083 15.3892917,8.66666667 13,8.66666667 L13,8.66666667 Z" id="Shape"></path>
                                <ellipse id="Oval" cx="19.90625" cy="6.09375" rx="1.48958333" ry="1.48958333"></ellipse>
                            </g>
                        </g>
                    </g>
                </g>
            </g>
        </g>
    </g>
</svg>