<?xml version="1.0" encoding="UTF-8" standalone="no"?>
<svg width="15px" height="15px" viewBox="0 0 15 15" version="1.1" xmlns="http://www.w3.org/2000/svg" xmlns:xlink="http://www.w3.org/1999/xlink">
    <!-- Generator: Sketch 3.8.2 (29753) - http://www.bohemiancoding.com/sketch -->
    <title>refresh icon</title>
    <desc>Created with Sketch.</desc>
    <defs></defs>
    <g id="Page-1" stroke="none" stroke-width="1" fill="none" fill-rule="evenodd">
        <g id="Identi_Wireframe" transform="translate(-535.000000, -4323.000000)" fill="#01A4FF">
            <g id="Contact-us" transform="translate(0.000000, 3651.000000)">
                <g id="Group-5" transform="translate(335.000000, 111.000000)">
                    <g id="Contact-form" transform="translate(0.000000, 128.000000)">
                        <g id="Enter-code" transform="translate(0.000000, 341.000000)">
                            <g id="Refresh" transform="translate(200.000000, 92.000000)">
                                <g id="refresh-icon">
                                    <path d="M14,4.91666667 L14,4.91666667 L10.75,4.91666667 C10.5,4.91666667 10.3333333,4.75 10.3333333,4.5 C10.3333333,4.25 10.5,4.08333333 10.75,4.08333333 L10.75,4.08333333 L13.5833333,4.08333333 L13.5833333,1.25 C13.5833333,1 13.75,0.833333333 14,0.833333333 L14,0.833333333 C14.25,0.833333333 14.4166667,1 14.4166667,1.25 L14.4166667,4.5 C14.4166667,4.58333333 14.3333333,4.75 14.3333333,4.83333333 C14.25,4.83333333 14.0833333,4.91666667 14,4.91666667 L14,4.91666667 Z" id="Shape"></path>
                                    <path d="M0.5,13.3333333 C0.25,13.3333333 0.0833333333,13.1666667 0.0833333333,12.9166667 L0.0833333333,9.66666667 C0.0833333333,9.41666667 0.25,9.25 0.5,9.25 L0.5,9.25 L3.75,9.25 C4,9.25 4.16666667,9.41666667 4.16666667,9.66666667 C4.16666667,9.91666667 4,10.0833333 3.75,10.0833333 L3.75,10.0833333 L0.916666667,10.0833333 L0.916666667,12.9166667 C0.916666667,13.1666667 0.75,13.3333333 0.5,13.3333333 L0.5,13.3333333 Z" id="Shape"></path>
                                    <path d="M13.8333333,3.83333333 C12.5833333,1.41666667 10.0833333,0 7.41666667,0 C3.5,0 0.333333333,3.08333333 0.166666667,6.91666667 L0.166666667,7 C0.166666667,7.16666667 0.333333333,7.33333333 0.5,7.41666667 C0.75,7.41666667 0.916666667,7.33333333 1,7.08333333 L1,7 C1.16666667,3.58333333 4,0.833333333 7.5,0.833333333 C9.91666667,0.833333333 12.0833333,2.16666667 13.25,4.25 C13.3333333,4.41666667 13.5833333,4.5 13.8333333,4.41666667 C13.9166667,4.33333333 14,4 13.8333333,3.83333333 L13.8333333,3.83333333 Z" id="Shape"></path>
                                    <path d="M14.5833333,7.41666667 C14.5833333,7.16666667 14.4166667,7 14.1666667,7 C13.75,7 13.75,7.41666667 13.75,7.41666667 C13.5833333,10.8333333 10.75,13.5833333 7.25,13.5833333 C4.83333333,13.5833333 2.66666667,12.25 1.5,10.1666667 C1.41666667,10 1.16666667,9.91666667 0.916666667,10 C0.75,10.0833333 0.666666667,10.3333333 0.75,10.5833333 C2,13 4.5,14.4166667 7.16666667,14.4166667 C11.1666667,14.4166667 14.4166667,11.3333333 14.5833333,7.41666667 L14.5833333,7.41666667 L14.5833333,7.41666667 Z" id="Shape"></path>
                                </g>
                            </g>
                        </g>
                    </g>
                </g>
            </g>
        </g>
    </g>
</svg>