<?xml version="1.0" encoding="UTF-8" standalone="no"?>
<svg width="17px" height="21px" viewBox="0 0 17 21" version="1.1" xmlns="http://www.w3.org/2000/svg" xmlns:xlink="http://www.w3.org/1999/xlink">
    <!-- Generator: Sketch 3.8.2 (29753) - http://www.bohemiancoding.com/sketch -->
    <title>Layer_1</title>
    <desc>Created with Sketch.</desc>
    <defs></defs>
    <g id="Page-1" stroke="none" stroke-width="1" fill="none" fill-rule="evenodd">
        <g id="Identi_Wireframe" transform="translate(-669.000000, -3930.000000)" stroke-width="2" stroke="#416992">
            <g id="Contact-us" transform="translate(0.000000, 3651.000000)">
                <g id="Group-5" transform="translate(335.000000, 111.000000)">
                    <g id="Contact-form" transform="translate(0.000000, 128.000000)">
                        <g id="name">
                            <g id="1" transform="translate(335.000000, 41.000000)">
                                <g id="Layer_1">
                                    <path d="M7.5,10.1 C10.2061953,10.1 12.4,7.90619527 12.4,5.2 C12.4,2.49380473 10.2061953,0.3 7.5,0.3 C4.79380473,0.3 2.6,2.49380473 2.6,5.2 C2.6,7.90619527 4.79380473,10.1 7.5,10.1 Z" id="Oval"></path>
                                    <path d="M0,19 L0,15.3 C0,12.5 2.3,10.2 5.1,10.2 L9.9,10.2 C12.7,10.2 15,12.5 15,15.3 L15,19 L0,19 L0,19 Z" id="Shape"></path>
                                </g>
                            </g>
                        </g>
                    </g>
                </g>
            </g>
        </g>
    </g>
</svg>