<?xml version="1.0" encoding="UTF-8" standalone="no"?>
<svg width="16px" height="13px" viewBox="0 0 16 13" version="1.1" xmlns="http://www.w3.org/2000/svg" xmlns:xlink="http://www.w3.org/1999/xlink">
    <!-- Generator: Sketch 3.8.2 (29753) - http://www.bohemiancoding.com/sketch -->
    <title>path5_1_</title>
    <desc>Created with Sketch.</desc>
    <defs></defs>
    <g id="Page-1" stroke="none" stroke-width="1" fill="none" fill-rule="evenodd">
        <g id="Identi_Wireframe" transform="translate(-1343.000000, -51.000000)" fill="#FFFFFF">
            <g id="Header" transform="translate(0.000000, -3.000000)">
                <g id="Group-6" transform="translate(1171.000000, 45.000000)">
                    <path d="M187.625,10.5030954 C187.050126,10.7582011 186.432531,10.9303586 185.784073,11.007932 C186.445607,10.6111995 186.95399,9.98279955 187.19347,9.23460412 C186.574102,9.60196957 185.887855,9.8684342 185.157501,10.0122774 C184.573096,9.38914141 183.739681,9 182.817943,9 C181.047441,9 179.612001,10.4354403 179.612001,12.2057207 C179.612001,12.4568923 179.640426,12.7014147 179.69517,12.9363513 C177.030801,12.8023155 174.668968,11.5263994 173.087856,9.58662112 C172.811861,10.0600959 172.653833,10.61059 172.653833,11.1984301 C172.653833,12.310611 173.219565,13.2916374 174.079798,13.8665117 C173.554571,13.8497781 173.060373,13.7057132 172.627846,13.4656789 C172.62768,13.4788664 172.62768,13.4923863 172.62768,13.5059063 C172.62768,15.0589811 173.732768,16.3545123 175.199072,16.6495128 C174.930058,16.7223764 174.646749,16.761828 174.354741,16.761828 C174.147897,16.761828 173.947259,16.7411602 173.751718,16.7041467 C174.159533,17.9774586 175.343524,18.9044053 176.745996,18.9302816 C175.649163,19.7902381 174.266861,20.3027766 172.764597,20.3027766 C172.506111,20.3027766 172.25095,20.287539 172,20.2575624 C173.418984,21.1674984 175.103933,21.6982666 176.914164,21.6982666 C182.810407,21.6982666 186.034912,16.8135806 186.034912,12.5775189 C186.034912,12.4382192 186.031698,12.3000832 186.025769,12.1625012 C186.65162,11.7104145 187.195465,11.1460681 187.625,10.5030954 L187.625,10.5030954 L187.625,10.5030954 Z" id="path5_1_"></path>
                </g>
            </g>
        </g>
    </g>
</svg>